<svg width="26" height="15" viewBox="0 0 26 15" fill="none" xmlns="http://www.w3.org/2000/svg">
<path fill-rule="evenodd" clip-rule="evenodd" d="M1.16749 0.0871016C0.823104 0.206666 0.527032 0.438424 0.317057 0.752621C-0.0230728 1.26178 -0.00964177 0.964562 0.0066277 7.60977L0.0214229 13.6656L0.139404 13.9208C0.400862 14.4866 0.908219 14.8607 1.53732 14.9517C1.98244 15.0161 15.9677 15.0161 16.4129 14.9517C17.042 14.8607 17.5493 14.4866 17.8108 13.9208L17.9288 13.6656V7.49626V1.32697L17.784 1.01823C17.6131 0.653804 17.2857 0.318423 16.9293 0.142898L16.6731 0.0166737L9.05699 0.00438934C1.94428 -0.00702113 1.42284 -0.00156161 1.16749 0.0871016ZM24.2618 2.30308C23.4408 2.75551 22.5694 3.23322 20.331 4.4578L19.1299 5.11486V7.49834V9.88176L20.2491 10.4942C22.028 11.4675 24.3381 12.7331 24.7396 12.9541L25.1081 13.1569V7.50129C25.1081 4.39065 25.102 1.84704 25.0944 1.84874C25.0869 1.85043 24.7123 2.05489 24.2618 2.30308Z" fill="white"/>
</svg>
