<svg width="134" height="33" viewBox="0 0 134 33" fill="none" xmlns="http://www.w3.org/2000/svg">
<path d="M0 31.86V0.359998H4.68V27.45H24.66V31.86H0Z" fill="white"/>
<path d="M31.0855 3.825C33.6355 1.275 37.7305 0 43.3705 0C49.0105 0 53.1055 1.275 55.6555 3.825C58.2055 6.375 59.4805 10.47 59.4805 16.11C59.4805 21.75 58.2055 25.845 55.6555 28.395C53.1055 30.945 49.0105 32.22 43.3705 32.22C37.7305 32.22 33.6355 30.945 31.0855 28.395C28.5355 25.845 27.2605 21.75 27.2605 16.11C27.2605 10.47 28.5355 6.375 31.0855 3.825ZM34.6405 7.2C32.8405 9.03 31.9405 12 31.9405 16.11C31.9405 20.22 32.8405 23.205 34.6405 25.065C36.4705 26.895 39.3805 27.81 43.3705 27.81C47.3605 27.81 50.2555 26.895 52.0555 25.065C53.8855 23.205 54.8005 20.22 54.8005 16.11C54.8005 12 53.8855 9.03 52.0555 7.2C50.2555 5.34 47.3605 4.41 43.3705 4.41C39.3805 4.41 36.4705 5.34 34.6405 7.2Z" fill="white"/>
<path d="M64.5261 16.11C64.5261 10.47 65.8011 6.375 68.3511 3.825C70.9011 1.275 74.9961 0 80.6361 0C85.2261 0 88.7661 0.84 91.2561 2.52C93.7761 4.17 95.4111 6.795 96.1611 10.395H91.2561C90.5361 8.325 89.3061 6.81 87.5661 5.85C85.8561 4.89 83.5461 4.41 80.6361 4.41C76.6461 4.41 73.7361 5.34 71.9061 7.2C70.1061 9.03 69.2061 12 69.2061 16.11C69.2061 20.25 70.1511 23.235 72.0411 25.065C73.9311 26.895 77.0811 27.81 81.4911 27.81C84.9411 27.81 87.4611 27.27 89.0511 26.19C90.6711 25.08 91.4811 23.34 91.4811 20.97V19.17H80.4111V15.03H96.2061V20.97C96.2061 24.9 95.0211 27.765 92.6511 29.565C90.3111 31.335 86.5761 32.22 81.4461 32.22C75.4161 32.22 71.0811 30.96 68.4411 28.44C65.8311 25.89 64.5261 21.78 64.5261 16.11Z" fill="white"/>
<path d="M105.353 3.825C107.903 1.275 111.998 0 117.638 0C123.278 0 127.373 1.275 129.923 3.825C132.473 6.375 133.748 10.47 133.748 16.11C133.748 21.75 132.473 25.845 129.923 28.395C127.373 30.945 123.278 32.22 117.638 32.22C111.998 32.22 107.903 30.945 105.353 28.395C102.803 25.845 101.528 21.75 101.528 16.11C101.528 10.47 102.803 6.375 105.353 3.825ZM108.908 7.2C107.108 9.03 106.208 12 106.208 16.11C106.208 20.22 107.108 23.205 108.908 25.065C110.738 26.895 113.648 27.81 117.638 27.81C121.628 27.81 124.523 26.895 126.323 25.065C128.153 23.205 129.068 20.22 129.068 16.11C129.068 12 128.153 9.03 126.323 7.2C124.523 5.34 121.628 4.41 117.638 4.41C113.648 4.41 110.738 5.34 108.908 7.2Z" fill="white"/>
</svg>
