<svg width="19" height="19" viewBox="0 0 19 19" fill="none" xmlns="http://www.w3.org/2000/svg">
<path fill-rule="evenodd" clip-rule="evenodd" d="M9.67499 1.2703C9.62967 1.60241 9.59272 1.91114 9.59287 1.95637C9.59314 2.02998 9.63063 2.04535 9.94779 2.10225C12.6484 2.5864 15.0457 4.43291 16.2216 6.93468C16.5202 7.56992 16.7331 8.20301 16.863 8.84177C16.9116 9.08076 16.9474 9.17721 16.9876 9.17721C17.094 9.17721 18.238 8.97491 18.2643 8.95145C18.2963 8.92285 18.1413 8.19829 18.0133 7.77793C17.613 6.46352 17.0152 5.34057 16.146 4.27014C15.783 3.82313 15.021 3.07484 14.5578 2.71045C13.5556 1.92222 12.2617 1.269 11.0411 0.935013C10.8258 0.87609 9.82826 0.666504 9.76316 0.666504C9.76002 0.666504 9.72034 0.938195 9.67499 1.2703ZM3.35287 2.39402C3.02463 2.4587 2.83671 2.60806 1.91583 3.53619C0.902746 4.55716 0.835312 4.65557 0.716354 5.28606C0.400959 6.95772 1.61446 9.93375 3.64642 12.4717C5.04271 14.2157 6.69935 15.6648 8.50059 16.7177C10.1657 17.6911 11.3497 18.1452 12.6363 18.3037C13.3616 18.393 14.0154 18.2777 14.4745 17.9793C14.6531 17.8632 16.1456 16.397 16.3378 16.1488C16.4934 15.9479 16.5796 15.6871 16.5837 15.4042C16.5871 15.1723 16.5701 15.0975 16.466 14.8866C16.3604 14.6728 16.1779 14.4749 15.0868 13.3906C13.6549 11.9676 13.64 11.9566 13.1393 11.9566C12.6347 11.9566 12.517 12.0334 11.6058 12.9566C11.1195 13.4493 10.8009 13.7429 10.7347 13.7594C10.6511 13.7802 10.5326 13.734 10.1405 13.5278C9.24359 13.056 8.47659 12.4699 7.55862 11.5549C6.80722 10.8059 6.33718 10.2474 5.83639 9.50856C5.56915 9.11434 5.22301 8.42103 5.22289 8.27983C5.22281 8.18606 5.3527 8.03705 6.04141 7.34059C6.78158 6.59214 6.86829 6.49078 6.94631 6.28281C7.07478 5.94027 7.06485 5.64412 6.91411 5.32198C6.80669 5.09242 6.67167 4.94218 5.63462 3.89843C4.99697 3.25663 4.38643 2.67254 4.27786 2.60047C4.09549 2.47932 3.71488 2.34764 3.57588 2.35753C3.54341 2.35983 3.44304 2.37624 3.35287 2.39402ZM9.57627 4.27922C9.54349 4.43188 9.4015 5.41494 9.4015 5.48905C9.4015 5.54755 9.45896 5.57281 9.71777 5.62821C10.6272 5.82284 11.3435 6.2151 12.0328 6.89577C12.4206 7.27867 12.7224 7.69167 12.9577 8.1613C13.0913 8.428 13.2907 9.00811 13.3299 9.2443C13.3511 9.37208 13.3733 9.40723 13.4328 9.40723C13.507 9.40723 14.5913 9.22375 14.6783 9.1965C14.7851 9.16299 14.4623 8.10222 14.165 7.51015C13.5585 6.30224 12.5973 5.34912 11.388 4.75667C10.9492 4.54168 10.4634 4.37062 10.066 4.29122C9.90083 4.25822 9.72728 4.22249 9.68028 4.21183C9.61457 4.19691 9.59061 4.21244 9.57627 4.27922Z" fill="white"/>
</svg>
