<svg width="17" height="20" viewBox="0 0 17 20" fill="none" xmlns="http://www.w3.org/2000/svg">
<path fill-rule="evenodd" clip-rule="evenodd" d="M5.07245 0.976342C3.29458 1.51202 1.53733 2.03933 1.16743 2.14811C0.388862 2.37707 0.230102 2.44697 0.107224 2.61502C0.0182763 2.73664 0.0175389 2.76991 0.0044788 7.19256C-0.00949247 11.93 -0.00202987 12.1481 0.196692 12.834C0.701089 14.5745 2.37894 16.4423 4.9641 18.1411C6.31793 19.0308 8.11489 20 8.4105 20C8.5568 20 8.92405 19.836 9.69329 19.4271C13.51 17.3985 15.9926 15.0405 16.6278 12.8406C16.8317 12.1346 16.837 11.9806 16.8226 7.21425C16.8093 2.76996 16.8085 2.73664 16.7196 2.61502C16.6076 2.46185 16.432 2.37438 15.9631 2.23823C15.7602 2.17935 13.9965 1.65113 12.0437 1.06442C10.091 0.477672 8.45085 -0.00129902 8.39904 2.64684e-06C8.34728 0.00130432 6.85031 0.440662 5.07245 0.976342Z" fill="white"/>
</svg>
