<svg width="21" height="20" viewBox="0 0 21 20" fill="none" xmlns="http://www.w3.org/2000/svg">
<path fill-rule="evenodd" clip-rule="evenodd" d="M10.0493 0.11863C9.85364 0.250586 9.92272 0.119347 8.158 3.70848C7.50924 5.02784 6.94916 6.11744 6.91336 6.1298C6.87751 6.14221 6.20199 6.24565 5.4122 6.35976C4.62241 6.47387 3.20207 6.67937 2.25586 6.81646C1.18708 6.97134 0.472422 7.09842 0.368877 7.15196C0.0625003 7.31038 -0.082431 7.72333 0.0479356 8.06622C0.073373 8.13325 0.621405 8.7059 1.2657 9.33891C1.90999 9.97187 2.96805 11.014 3.61686 11.6547L4.79662 12.8197L4.49686 14.578C4.33203 15.545 4.08299 17.0054 3.9435 17.8232C3.69625 19.2726 3.69194 19.3158 3.77292 19.5279C3.88698 19.8265 4.11048 19.9775 4.43778 19.9772C4.67487 19.977 4.91201 19.8618 7.58104 18.4509L10.4678 16.9249L12.7865 18.1496C16.5287 20.1262 16.305 20.0168 16.5492 19.9894C16.8368 19.9572 17.0542 19.7909 17.1555 19.5257C17.2383 19.3088 17.2342 19.2752 16.8489 17.0005C16.6341 15.7326 16.3904 14.3169 16.3074 13.8548C16.2244 13.3925 16.1564 12.9619 16.1564 12.8978C16.1564 12.8117 16.7561 12.1953 18.4514 10.5391C19.7136 9.30604 20.7868 8.22541 20.8362 8.13776C21.0288 7.79564 20.8958 7.32633 20.5564 7.15073C20.4516 7.09652 19.8129 6.98031 18.8745 6.84477C18.0424 6.7245 16.6231 6.51957 15.7205 6.3892C14.8179 6.25888 14.0514 6.14267 14.0173 6.13098C13.9832 6.11924 13.4412 5.0643 12.813 3.78664C11.0344 0.169196 11.0759 0.247765 10.8793 0.117501C10.6423 -0.039585 10.2835 -0.0391232 10.0493 0.11863Z" fill="white"/>
</svg>
