<svg width="23" height="15" viewBox="0 0 23 15" fill="none" xmlns="http://www.w3.org/2000/svg">
<path fill-rule="evenodd" clip-rule="evenodd" d="M2.33592 0.0722387C1.34165 0.313109 0.477194 1.11387 0.164523 2.08356C0.00288367 2.5849 -0.0415457 3.23762 0.0711666 3.45556C0.241115 3.78417 -0.674856 3.75929 11.2452 3.75929C23.1652 3.75929 22.2492 3.78417 22.4192 3.45556C22.5319 3.23762 22.4875 2.5849 22.3258 2.08356C22.01 1.10395 21.1453 0.307831 20.1409 0.0717994C19.862 0.00625427 18.7727 -0.00244597 11.2207 0.000486698C4.02416 0.00327273 2.5721 0.0150028 2.33592 0.0722387ZM0.167798 5.78449L0 5.95229L0.0138327 9.2426L0.0277138 12.5329L0.157436 12.9133C0.416146 13.6718 0.99574 14.3404 1.68663 14.6773C2.39247 15.0215 1.74782 14.9997 11.2452 14.9997C18.7673 14.9997 19.8623 14.9905 20.1409 14.9251C21.1415 14.69 21.9938 13.9078 22.3329 12.9133L22.4626 12.5329L22.4765 9.2426L22.4904 5.95229L22.3226 5.78449L22.1547 5.61665H11.2452H0.335644L0.167798 5.78449ZM5.84418 8.01748C5.95171 8.04725 6.10274 8.11646 6.17977 8.1712C6.32562 8.27487 6.55178 8.69752 6.55217 8.86702C6.55286 9.20726 6.28163 9.62844 5.98094 9.75411C5.7583 9.84712 4.0727 9.84712 3.85006 9.75411C3.64834 9.66984 3.40322 9.39129 3.32667 9.15946C3.17359 8.69556 3.47258 8.16123 3.96419 8.02017C4.19782 7.95311 5.60458 7.9511 5.84418 8.01748Z" fill="white"/>
</svg>
