<svg width="1681" height="1000" viewBox="0 0 1681 1000" fill="none" xmlns="http://www.w3.org/2000/svg">
<line x1="0.5" y1="1000" x2="0.500038" y2="-2.54136e-08" stroke="url(#paint0_linear_1_10)" stroke-opacity="0.1"/>
<line x1="240.5" y1="1000" x2="240.5" y2="-2.54136e-08" stroke="url(#paint1_linear_1_10)" stroke-opacity="0.1"/>
<line x1="480.5" y1="1000" x2="480.5" y2="-2.54136e-08" stroke="url(#paint2_linear_1_10)" stroke-opacity="0.1"/>
<line x1="720.5" y1="1000" x2="720.5" y2="-2.54136e-08" stroke="url(#paint3_linear_1_10)" stroke-opacity="0.1"/>
<line x1="960.5" y1="1000" x2="960.5" y2="-2.54136e-08" stroke="url(#paint4_linear_1_10)" stroke-opacity="0.1"/>
<line x1="1200.5" y1="1000" x2="1200.5" y2="-2.54136e-08" stroke="url(#paint5_linear_1_10)" stroke-opacity="0.1"/>
<line x1="1440.5" y1="1000" x2="1440.5" y2="-2.54136e-08" stroke="url(#paint6_linear_1_10)" stroke-opacity="0.1"/>
<line x1="1680.5" y1="1000" x2="1680.5" y2="-2.54136e-08" stroke="url(#paint7_linear_1_10)" stroke-opacity="0.1"/>
<defs>
<linearGradient id="paint0_linear_1_10" x1="1.00002" y1="500" x2="2.00002" y2="500" gradientUnits="userSpaceOnUse">
<stop stop-color="white"/>
<stop offset="1" stop-color="white" stop-opacity="0"/>
</linearGradient>
<linearGradient id="paint1_linear_1_10" x1="241" y1="500" x2="242" y2="500" gradientUnits="userSpaceOnUse">
<stop stop-color="white"/>
<stop offset="1" stop-color="white" stop-opacity="0"/>
</linearGradient>
<linearGradient id="paint2_linear_1_10" x1="481" y1="500" x2="482" y2="500" gradientUnits="userSpaceOnUse">
<stop stop-color="white"/>
<stop offset="1" stop-color="white" stop-opacity="0"/>
</linearGradient>
<linearGradient id="paint3_linear_1_10" x1="721" y1="500" x2="722" y2="500" gradientUnits="userSpaceOnUse">
<stop stop-color="white"/>
<stop offset="1" stop-color="white" stop-opacity="0"/>
</linearGradient>
<linearGradient id="paint4_linear_1_10" x1="961" y1="500" x2="962" y2="500" gradientUnits="userSpaceOnUse">
<stop stop-color="white"/>
<stop offset="1" stop-color="white" stop-opacity="0"/>
</linearGradient>
<linearGradient id="paint5_linear_1_10" x1="1201" y1="500" x2="1202" y2="500" gradientUnits="userSpaceOnUse">
<stop stop-color="white"/>
<stop offset="1" stop-color="white" stop-opacity="0"/>
</linearGradient>
<linearGradient id="paint6_linear_1_10" x1="1441" y1="500" x2="1442" y2="500" gradientUnits="userSpaceOnUse">
<stop stop-color="white"/>
<stop offset="1" stop-color="white" stop-opacity="0"/>
</linearGradient>
<linearGradient id="paint7_linear_1_10" x1="1681" y1="500" x2="1682" y2="500" gradientUnits="userSpaceOnUse">
<stop stop-color="white"/>
<stop offset="1" stop-color="white" stop-opacity="0"/>
</linearGradient>
</defs>
</svg>
